<svg xmlns="http://www.w3.org/2000/svg" viewBox="0 0 1440 1024" fill="none">
  <title>D15 skin colour samples</title>
  <g id="swatches">
    <rect x="675" y="326" width="38.8571" height="30.75" rx="12" fill="#EABEBE" id="sw-0-0" class="swatch" data-row="0" data-col="0" />
    <rect x="721.357" y="326" width="38.8571" height="30.75" rx="12" fill="#AD6D5C" id="sw-0-1" class="swatch" data-row="0" data-col="1" />
    <rect x="767.715" y="326" width="38.8571" height="30.75" rx="12" fill="#B37F6C" id="sw-0-2" class="swatch" data-row="0" data-col="2" />
    <rect x="814.072" y="326" width="38.8571" height="30.75" rx="12" fill="#6D361D" id="sw-0-3" class="swatch" data-row="0" data-col="3" />
    <rect x="860.428" y="326" width="38.8571" height="30.75" rx="12" fill="#C28669" id="sw-0-4" class="swatch" data-row="0" data-col="4" />
    <rect x="906.785" y="326" width="38.8571" height="30.75" rx="12" fill="#DA8E6E" id="sw-0-5" class="swatch" data-row="0" data-col="5" />
    <rect x="953.143" y="326" width="38.8571" height="30.75" rx="12" fill="#D4B6AB" id="sw-0-6" class="swatch" data-row="0" data-col="6" />
    <rect x="999.5" y="326" width="38.8571" height="30.75" rx="12" fill="#EABEBE" id="sw-0-7" class="swatch" data-row="0" data-col="7" />
    <rect x="1045.86" y="326" width="38.8571" height="30.75" rx="12" fill="#AD6D5C" id="sw-0-8" class="swatch" data-row="0" data-col="8" />
    <rect x="1092.21" y="326" width="38.8571" height="30.75" rx="12" fill="#B37F6C" id="sw-0-9" class="swatch" data-row="0" data-col="9" />
    <rect x="1138.57" y="326" width="38.8571" height="30.75" rx="12" fill="#CC8C6C" id="sw-0-10" class="swatch" data-row="0" data-col="10" />
    <rect x="1184.93" y="326" width="38.8571" height="30.75" rx="12" fill="#D4B6AB" id="sw-0-11" class="swatch" data-row="0" data-col="11" />
    <rect x="1231.29" y="326" width="38.8571" height="30.75" rx="12" fill="#DA8E6E" id="sw-0-12" class="swatch" data-row="0" data-col="12" />
    <rect x="1277.64" y="326" width="38.8571" height="30.75" rx="12" fill="#D4B6AB" id="sw-0-13" class="swatch" data-row="0" data-col="13" />
    <rect x="675" y="364.375" width="38.8571" height="30.75" rx="12" fill="#E5A090" id="sw-1-0" class="swatch" data-row="1" data-col="0" />
    <rect x="721.357" y="364.375" width="38.8571" height="30.75" rx="12" fill="#D69272" id="sw-1-1" class="swatch" data-row="1" data-col="1" />
    <rect x="767.715" y="364.375" width="38.8571" height="30.75" rx="12" fill="#BF8364" id="sw-1-2" class="swatch" data-row="1" data-col="2" />
    <rect x="814.072" y="364.375" width="38.8571" height="30.75" rx="12" fill="#C08469" id="sw-1-3" class="swatch" data-row="1" data-col="3" />
    <rect x="860.428" y="364.375" width="38.8571" height="30.75" rx="12" fill="#9F6B58" id="sw-1-4" class="swatch" data-row="1" data-col="4" />
    <rect x="906.785" y="364.375" width="38.8571" height="30.75" rx="12" fill="#B87A5C" id="sw-1-5" class="swatch" data-row="1" data-col="5" />
    <rect x="953.143" y="364.375" width="38.8571" height="30.75" rx="12" fill="#C69176" id="sw-1-6" class="swatch" data-row="1" data-col="6" />
    <rect x="999.5" y="364.375" width="38.8571" height="30.75" rx="12" fill="#E5A090" id="sw-1-7" class="swatch" data-row="1" data-col="7" />
    <rect x="1045.86" y="364.375" width="38.8571" height="30.75" rx="12" fill="#B37F6C" id="sw-1-8" class="swatch" data-row="1" data-col="8" />
    <rect x="1092.21" y="364.375" width="38.8571" height="30.75" rx="12" fill="#BF8364" id="sw-1-9" class="swatch" data-row="1" data-col="9" />
    <rect x="1138.57" y="364.375" width="38.8571" height="30.75" rx="12" fill="#C08469" id="sw-1-10" class="swatch" data-row="1" data-col="10" />
    <rect x="1184.93" y="364.375" width="38.8571" height="30.75" rx="12" fill="#9F6B58" id="sw-1-11" class="swatch" data-row="1" data-col="11" />
    <rect x="1231.29" y="364.375" width="38.8571" height="30.75" rx="12" fill="#B87A5C" id="sw-1-12" class="swatch" data-row="1" data-col="12" />
    <rect x="1277.64" y="364.375" width="38.8571" height="30.75" rx="12" fill="#C69176" id="sw-1-13" class="swatch" data-row="1" data-col="13" />
    <rect x="675" y="402.75" width="38.8571" height="30.75" rx="12" fill="#C68E71" id="sw-2-0" class="swatch" data-row="2" data-col="0" />
    <rect x="721.357" y="402.75" width="38.8571" height="30.75" rx="12" fill="#6D361D" id="sw-2-1" class="swatch" data-row="2" data-col="1" />
    <rect x="767.715" y="402.75" width="38.8571" height="30.75" rx="12" fill="#D26D6F" id="sw-2-2" class="swatch" data-row="2" data-col="2" />
    <rect x="814.072" y="402.75" width="38.8571" height="30.75" rx="12" fill="#AA5558" id="sw-2-3" class="swatch" data-row="2" data-col="3" />
    <rect x="860.428" y="402.75" width="38.8571" height="30.75" rx="12" fill="#F26F81" id="sw-2-4" class="swatch" data-row="2" data-col="4" />
    <rect x="906.785" y="402.75" width="38.8571" height="30.75" rx="12" fill="#CA9C88" id="sw-2-5" class="swatch" data-row="2" data-col="5" />
    <rect x="953.143" y="402.75" width="38.8571" height="30.75" rx="12" fill="#F26F81" id="sw-2-6" class="swatch" data-row="2" data-col="6" />
    <rect x="999.5" y="402.75" width="38.8571" height="30.75" rx="12" fill="#C68E71" id="sw-2-7" class="swatch" data-row="2" data-col="7" />
    <rect x="1045.86" y="402.75" width="38.8571" height="30.75" rx="12" fill="#CC8C6C" id="sw-2-8" class="swatch" data-row="2" data-col="8" />
    <rect x="1092.21" y="402.75" width="38.8571" height="30.75" rx="12" fill="#D26D6F" id="sw-2-9" class="swatch" data-row="2" data-col="9" />
    <rect x="1138.57" y="402.75" width="38.8571" height="30.75" rx="12" fill="#AA5558" id="sw-2-10" class="swatch" data-row="2" data-col="10" />
    <rect x="1184.93" y="402.75" width="38.8571" height="30.75" rx="12" fill="#F26F81" id="sw-2-11" class="swatch" data-row="2" data-col="11" />
    <rect x="1231.29" y="402.75" width="38.8571" height="30.75" rx="12" fill="#CA9C88" id="sw-2-12" class="swatch" data-row="2" data-col="12" />
    <rect x="1277.64" y="402.75" width="38.8571" height="30.75" rx="12" fill="#AD6D5C" id="sw-2-13" class="swatch" data-row="2" data-col="13" />
    <rect x="675" y="441.125" width="38.8571" height="30.75" rx="12" fill="#BF7F6B" id="sw-3-0" class="swatch" data-row="3" data-col="0" />
    <rect x="721.357" y="441.125" width="38.8571" height="30.75" rx="12" fill="#C18A79" id="sw-3-1" class="swatch" data-row="3" data-col="1" />
    <rect x="767.715" y="441.125" width="38.8571" height="30.75" rx="12" fill="#A47464" id="sw-3-2" class="swatch" data-row="3" data-col="2" />
    <rect x="814.072" y="441.125" width="38.8571" height="30.75" rx="12" fill="#C48C79" id="sw-3-3" class="swatch" data-row="3" data-col="3" />
    <rect x="860.428" y="441.125" width="38.8571" height="30.75" rx="12" fill="#A86955" id="sw-3-4" class="swatch" data-row="3" data-col="4" />
    <rect x="906.785" y="441.125" width="38.8571" height="30.75" rx="12" fill="#C4886B" id="sw-3-5" class="swatch" data-row="3" data-col="5" />
    <rect x="953.143" y="441.125" width="38.8571" height="30.75" rx="12" fill="#EBB4BA" id="sw-3-6" class="swatch" data-row="3" data-col="6" />
    <rect x="999.5" y="441.125" width="38.8571" height="30.75" rx="12" fill="#BF7F6B" id="sw-3-7" class="swatch" data-row="3" data-col="7" />
    <rect x="1045.86" y="441.125" width="38.8571" height="30.75" rx="12" fill="#C18A79" id="sw-3-8" class="swatch" data-row="3" data-col="8" />
    <rect x="1092.21" y="441.125" width="38.8571" height="30.75" rx="12" fill="#A47464" id="sw-3-9" class="swatch" data-row="3" data-col="9" />
    <rect x="1138.57" y="441.125" width="38.8571" height="30.75" rx="12" fill="#C48C79" id="sw-3-10" class="swatch" data-row="3" data-col="10" />
    <rect x="1184.93" y="441.125" width="38.8571" height="30.75" rx="12" fill="#A86955" id="sw-3-11" class="swatch" data-row="3" data-col="11" />
    <rect x="1231.29" y="441.125" width="38.8571" height="30.75" rx="12" fill="#C4886B" id="sw-3-12" class="swatch" data-row="3" data-col="12" />
    <rect x="1277.64" y="441.125" width="38.8571" height="30.75" rx="12" fill="#EBB4BA" id="sw-3-13" class="swatch" data-row="3" data-col="13" />
    <rect x="675" y="479.5" width="38.8571" height="30.75" rx="12" fill="#EABEBE" id="sw-4-0" class="swatch" data-row="4" data-col="0" />
    <rect x="721.357" y="479.5" width="38.8571" height="30.75" rx="12" fill="#AD6D5C" id="sw-4-1" class="swatch" data-row="4" data-col="1" />
    <rect x="767.715" y="479.5" width="38.8571" height="30.75" rx="12" fill="#B37F6C" id="sw-4-2" class="swatch" data-row="4" data-col="2" />
    <rect x="814.072" y="479.5" width="38.8571" height="30.75" rx="12" fill="#D4B6AB" id="sw-4-3" class="swatch" data-row="4" data-col="3" />
    <rect x="860.428" y="479.5" width="38.8571" height="30.75" rx="12" fill="#C28669" id="sw-4-4" class="swatch" data-row="4" data-col="4" />
    <rect x="906.785" y="479.5" width="38.8571" height="30.75" rx="12" fill="#DA8E6E" id="sw-4-5" class="swatch" data-row="4" data-col="5" />
    <rect x="953.143" y="479.5" width="38.8571" height="30.75" rx="12" fill="#C18A79" id="sw-4-6" class="swatch" data-row="4" data-col="6" />
    <rect x="999.5" y="479.5" width="38.8571" height="30.75" rx="12" fill="#EABEBE" id="sw-4-7" class="swatch" data-row="4" data-col="7" />
    <rect x="1045.86" y="479.5" width="38.8571" height="30.75" rx="12" fill="#AD6D5C" id="sw-4-8" class="swatch" data-row="4" data-col="8" />
    <rect x="1092.21" y="479.5" width="38.8571" height="30.75" rx="12" fill="#B37F6C" id="sw-4-9" class="swatch" data-row="4" data-col="9" />
    <rect x="1138.57" y="479.5" width="38.8571" height="30.75" rx="12" fill="#CC8C6C" id="sw-4-10" class="swatch" data-row="4" data-col="10" />
    <rect x="1184.93" y="479.5" width="38.8571" height="30.75" rx="12" fill="#C28669" id="sw-4-11" class="swatch" data-row="4" data-col="11" />
    <rect x="1231.29" y="479.5" width="38.8571" height="30.75" rx="12" fill="#DA8E6E" id="sw-4-12" class="swatch" data-row="4" data-col="12" />
    <rect x="1277.64" y="479.5" width="38.8571" height="30.75" rx="12" fill="#D4B6AB" id="sw-4-13" class="swatch" data-row="4" data-col="13" />
    <rect x="675" y="517.875" width="38.8571" height="30.75" rx="12" fill="#E5A090" id="sw-5-0" class="swatch" data-row="5" data-col="0" />
    <rect x="721.357" y="517.875" width="38.8571" height="30.75" rx="12" fill="#D69272" id="sw-5-1" class="swatch" data-row="5" data-col="1" />
    <rect x="767.715" y="517.875" width="38.8571" height="30.75" rx="12" fill="#BF8364" id="sw-5-2" class="swatch" data-row="5" data-col="2" />
    <rect x="814.072" y="517.875" width="38.8571" height="30.75" rx="12" fill="#C08469" id="sw-5-3" class="swatch" data-row="5" data-col="3" />
    <rect x="860.428" y="517.875" width="38.8571" height="30.75" rx="12" fill="#9F6B58" id="sw-5-4" class="swatch" data-row="5" data-col="4" />
    <rect x="906.785" y="517.875" width="38.8571" height="30.75" rx="12" fill="#B87A5C" id="sw-5-5" class="swatch" data-row="5" data-col="5" />
    <rect x="953.143" y="517.875" width="38.8571" height="30.75" rx="12" fill="#C69176" id="sw-5-6" class="swatch" data-row="5" data-col="6" />
    <rect x="999.5" y="517.875" width="38.8571" height="30.75" rx="12" fill="#E5A090" id="sw-5-7" class="swatch" data-row="5" data-col="7" />
    <rect x="1045.86" y="517.875" width="38.8571" height="30.75" rx="12" fill="#D69272" id="sw-5-8" class="swatch" data-row="5" data-col="8" />
    <rect x="1092.21" y="517.875" width="38.8571" height="30.75" rx="12" fill="#BF8364" id="sw-5-9" class="swatch" data-row="5" data-col="9" />
    <rect x="1138.57" y="517.875" width="38.8571" height="30.75" rx="12" fill="#C08469" id="sw-5-10" class="swatch" data-row="5" data-col="10" />
    <rect x="1184.93" y="517.875" width="38.8571" height="30.75" rx="12" fill="#9F6B58" id="sw-5-11" class="swatch" data-row="5" data-col="11" />
    <rect x="1231.29" y="517.875" width="38.8571" height="30.75" rx="12" fill="#B87A5C" id="sw-5-12" class="swatch" data-row="5" data-col="12" />
    <rect x="1277.64" y="517.875" width="38.8571" height="30.75" rx="12" fill="#C69176" id="sw-5-13" class="swatch" data-row="5" data-col="13" />
    <rect x="675" y="556.25" width="38.8571" height="30.75" rx="12" fill="#C68E71" id="sw-6-0" class="swatch" data-row="6" data-col="0" />
    <rect x="721.357" y="556.25" width="38.8571" height="30.75" rx="12" fill="#6D361D" id="sw-6-1" class="swatch" data-row="6" data-col="1" />
    <rect x="767.715" y="556.25" width="38.8571" height="30.75" rx="12" fill="#D26D6F" id="sw-6-2" class="swatch" data-row="6" data-col="2" />
    <rect x="814.072" y="556.25" width="38.8571" height="30.75" rx="12" fill="#AA5558" id="sw-6-3" class="swatch" data-row="6" data-col="3" />
    <rect x="860.428" y="556.25" width="38.8571" height="30.75" rx="12" fill="#E5A090" id="sw-6-4" class="swatch" data-row="6" data-col="4" />
    <rect x="906.785" y="556.25" width="38.8571" height="30.75" rx="12" fill="#CA9C88" id="sw-6-5" class="swatch" data-row="6" data-col="5" />
    <rect x="953.143" y="556.25" width="38.8571" height="30.75" rx="12" fill="#D2B2B8" id="sw-6-6" class="swatch" data-row="6" data-col="6" />
    <rect x="999.5" y="556.25" width="38.8571" height="30.75" rx="12" fill="#C68E71" id="sw-6-7" class="swatch" data-row="6" data-col="7" />
    <rect x="1045.86" y="556.25" width="38.8571" height="30.75" rx="12" fill="#6D361D" id="sw-6-8" class="swatch" data-row="6" data-col="8" />
    <rect x="1092.21" y="556.25" width="38.8571" height="30.75" rx="12" fill="#D26D6F" id="sw-6-9" class="swatch" data-row="6" data-col="9" />
    <rect x="1138.57" y="556.25" width="38.8571" height="30.75" rx="12" fill="#AA5558" id="sw-6-10" class="swatch" data-row="6" data-col="10" />
    <rect x="1184.93" y="556.25" width="38.8571" height="30.75" rx="12" fill="#F26F81" id="sw-6-11" class="swatch" data-row="6" data-col="11" />
    <rect x="1231.29" y="556.25" width="38.8571" height="30.75" rx="12" fill="#CA9C88" id="sw-6-12" class="swatch" data-row="6" data-col="12" />
    <rect x="1277.64" y="556.25" width="38.8571" height="30.75" rx="12" fill="#AA5558" id="sw-6-13" class="swatch" data-row="6" data-col="13" />
    <rect x="675" y="594.625" width="38.8571" height="30.75" rx="12" fill="#BF7F6B" id="sw-7-0" class="swatch" data-row="7" data-col="0" />
    <rect x="721.357" y="594.625" width="38.8571" height="30.75" rx="12" fill="#C18A79" id="sw-7-1" class="swatch" data-row="7" data-col="1" />
    <rect x="767.715" y="594.625" width="38.8571" height="30.75" rx="12" fill="#A47464" id="sw-7-2" class="swatch" data-row="7" data-col="2" />
    <rect x="814.072" y="594.625" width="38.8571" height="30.75" rx="12" fill="#C48C79" id="sw-7-3" class="swatch" data-row="7" data-col="3" />
    <rect x="860.428" y="594.625" width="38.8571" height="30.75" rx="12" fill="#A86955" id="sw-7-4" class="swatch" data-row="7" data-col="4" />
    <rect x="906.785" y="594.625" width="38.8571" height="30.75" rx="12" fill="#C4886B" id="sw-7-5" class="swatch" data-row="7" data-col="5" />
    <rect x="953.143" y="594.625" width="38.8571" height="30.75" rx="12" fill="#EBB4BA" id="sw-7-6" class="swatch" data-row="7" data-col="6" />
    <rect x="999.5" y="594.625" width="38.8571" height="30.75" rx="12" fill="#BF7F6B" id="sw-7-7" class="swatch" data-row="7" data-col="7" />
    <rect x="1045.86" y="594.625" width="38.8571" height="30.75" rx="12" fill="#C18A79" id="sw-7-8" class="swatch" data-row="7" data-col="8" />
    <rect x="1092.21" y="594.625" width="38.8571" height="30.75" rx="12" fill="#A47464" id="sw-7-9" class="swatch" data-row="7" data-col="9" />
    <rect x="1138.57" y="594.625" width="38.8571" height="30.75" rx="12" fill="#C48C79" id="sw-7-10" class="swatch" data-row="7" data-col="10" />
    <rect x="1184.93" y="594.625" width="38.8571" height="30.75" rx="12" fill="#A86955" id="sw-7-11" class="swatch" data-row="7" data-col="11" />
    <rect x="1231.29" y="594.625" width="38.8571" height="30.75" rx="12" fill="#C4886B" id="sw-7-12" class="swatch" data-row="7" data-col="12" />
    <rect x="1277.64" y="594.625" width="38.8571" height="30.75" rx="12" fill="#EBB4BA" id="sw-7-13" class="swatch" data-row="7" data-col="13" />
  </g>
</svg>
